<svg width="128" height="128" viewBox="0 0 128 128" fill="none" xmlns="http://www.w3.org/2000/svg">
<rect width="128" height="128" fill="#F5F5F5"/>
<g clip-path="url(#clip0_0_1)">
<rect width="128" height="128" fill="white"/>
<path d="M0 29C0 12.9837 12.9837 0 29 0H99C115.016 0 128 12.9837 128 29V99C128 115.016 115.016 128 99 128H29C12.9837 128 0 115.016 0 99V29Z" fill="url(#paint0_linear_0_1)"/>
<rect x="21.9537" y="30.0117" width="84.0926" height="13.6078" rx="5.53822" fill="white"/>
<rect x="47.946" y="48.1348" width="32.108" height="13.6078" rx="5.53822" fill="white"/>
<rect x="47.946" y="66.2578" width="32.108" height="13.6078" rx="5.53822" fill="white"/>
<rect x="47.946" y="84.3805" width="32.108" height="13.6078" rx="5.53822" fill="white"/>
</g>
<defs>
<linearGradient id="paint0_linear_0_1" x1="14.1553" y1="-20.1243" x2="104.481" y2="153.204" gradientUnits="userSpaceOnUse">
<stop stop-color="#AA29AC"/>
<stop offset="1" stop-color="#1667E0"/>
</linearGradient>
<clipPath id="clip0_0_1">
<rect width="128" height="128" fill="white"/>
</clipPath>
</defs>
</svg>
